<svg width="128" height="128" viewBox="0 0 128 128" fill="none" xmlns="http://www.w3.org/2000/svg">
<path fill-rule="evenodd" clip-rule="evenodd" d="M64 128C99.3462 128 128 99.3462 128 64C128 28.6538 99.3462 0 64 0C28.6538 0 0 28.6538 0 64C0 99.3462 28.6538 128 64 128ZM65.8402 96.8C60.9802 96.8 56.2702 96.11 51.7102 94.73C50.46 94.3466 49.2816 93.9285 48.175 93.4756C47.2533 95.4959 45.2156 96.9 42.85 96.9C39.6191 96.9 37 94.2809 37 91.05V39.75C37 36.5192 39.6191 33.9 42.85 33.9C45.3906 33.9 47.553 35.5196 48.361 37.7827C49.8639 36.5186 51.6403 35.4311 53.6902 34.52C57.5302 32.84 62.2102 32 67.7302 32C71.5703 32 75.3503 32.48 79.0703 33.44C81.2822 34.0108 83.3137 34.7301 85.165 35.5979C87.3033 36.6002 88.0626 39.1507 87.1744 41.3389C86.0335 44.1494 82.6668 45.2612 79.845 44.1484C78.7052 43.699 77.547 43.3095 76.3702 42.98C73.3702 42.14 70.4603 41.72 67.6402 41.72C63.0202 41.72 59.5702 42.5 57.2902 44.06C55.0702 45.62 53.9602 47.69 53.9602 50.27C53.9602 52.07 54.5902 53.54 55.8502 54.68C57.1702 55.82 58.8202 56.72 60.8002 57.38C62.7802 58.04 65.4802 58.79 68.9002 59.63C73.5802 60.71 77.4202 61.85 80.4202 63.05C83.4202 64.19 85.9702 65.96 88.0703 68.36C90.2302 70.76 91.3102 74 91.3102 78.08C91.3102 81.56 90.3503 84.71 88.4303 87.53C86.5703 90.35 83.7202 92.6 79.8802 94.28C76.0402 95.96 71.3602 96.8 65.8402 96.8ZM50.3984 83.4767C49.8558 83.2113 49.2822 83.0288 48.7 82.9271V63.6014C50.0681 64.5939 51.5515 65.4001 53.1502 66.02C56.1502 67.16 60.0502 68.3 64.8502 69.44C68.2702 70.28 70.9702 71.03 72.9502 71.69C74.9302 72.35 76.5502 73.28 77.8102 74.48C79.1302 75.62 79.7902 77.09 79.7902 78.89C79.7902 81.35 78.6202 83.33 76.2802 84.83C74.0002 86.33 70.5202 87.08 65.8402 87.08C62.0602 87.08 58.2802 86.45 54.5002 85.19C53.0458 84.6739 51.6786 84.1028 50.3984 83.4767Z" fill="#03762B"/>
</svg>
